PathFileType	4	(X/Y/Z)	7_coords_data.trc
DataRate	CameraRate	NumFrames	NumMarkers	Units	OrigDataRate	OrigDataStartFrame	OrigNumFrames
30.0	30.0	7	21	m	30.0	43	53
Frame#	Time	THUMB_TIP	THUMB_IP	THUMB_MCP	THUMB_CMC	INDEX_TIP	INDEX_DIP	INDEX_PIP	INDEX_MCP	MIDDLE_TIP	MIDDLE_DIP	MIDDLE_PIP	MIDDLE_MCP	RING_TIP	RING_DIP	RING_PIP	RING_MCP	PINKY_TIP	PINKY_DIP	PINKY_PIP	PINKY_MCP	WRIST
X1	Y1	Z1	X2	Y2	Z2	X3	Y3	Z3	X4	Y4	Z4	X5	Y5	Z5	X6	Y6	Z6	X7	Y7	Z7	X8	Y8	Z8	X9	Y9	Z9	X10	Y10	Z10	X11	Y11	Z11	X12	Y12	Z12	X13	Y13	Z13	X14	Y14	Z14	X15	Y15	Z15	X16	Y16	Z16	X17	Y17	Z17	X18	Y18	Z18	X19	Y19	Z19	X20	Y20	Z20	X21	Y21	Z21
42	1.4	-0.0061571598052978516	-0.057143699645996096	1.0023900146484375	-0.0136274995803833	-0.03750559997558594	1.0181900024414063	-0.027438100814819337	-0.022503000259399414	1.039449951171875	-0.03253770065307617	0.008483169555664062	1.0537900390625	-0.01790730094909668	-0.013131199836730957	0.9212570190429688	-0.030437999725341797	-0.010327400207519532	0.939041015625	-0.03952870178222656	-0.007215750217437744	0.9595059814453125	-0.038070499420166014	-0.0006469410061836241	0.9957520141601562	-0.027379899978637694	0.02985300064086914	0.901323974609375	-0.03347549819946289	0.027636199951171874	0.9252789916992188	-0.039603900909423825	0.024984399795532228	0.9524669799804687	-0.040157001495361326	0.021885499954223633	0.9908159790039063	0.003472599983215332	0.04886479949951172	0.9259039916992188	-0.011494500160217285	0.04879899978637695	0.9427839965820313	-0.02643120002746582	0.047449600219726565	0.963083984375	-0.03591469955444336	0.04162080001831055	0.9952000122070312	0.013256699562072753	0.07566899871826172	0.964427978515625	-0.001523920059204101	0.07223429870605469	0.9751740112304688	-0.014146699905395507	0.0678375015258789	0.9858670043945312	-0.028614299774169922	0.05826309967041016	1.0048499755859375	-0.05231330108642578	0.034506198883056644	1.0669300537109374
43	1.4333333333333333	-0.004508830070495605	-0.05717879867553711	1.0027000122070313	-0.012962100028991699	-0.038009601593017577	1.0187000122070313	-0.026803199768066405	-0.0233302001953125	1.040030029296875	-0.032401798248291015	0.007676980018615723	1.053969970703125	-0.01882419967651367	-0.014826000213623047	0.9217880249023438	-0.03147050094604492	-0.0123302001953125	0.9395659790039063	-0.04060910034179688	-0.009353699684143067	0.9599819946289062	-0.03902930068969727	-0.002348629951477051	0.9959609985351563	-0.029722299575805664	0.02719969940185547	0.9013809814453125	-0.03576789855957031	0.025149999618530275	0.9253740234375	-0.04169129943847656	0.022673700332641603	0.952573974609375	-0.04187200164794922	0.020175100326538086	0.99102099609375	0.001139279961585998	0.04672560119628906	0.9259500122070312	-0.014059399604797363	0.04678770065307617	0.9425040283203125	-0.029226900100708008	0.045581501007080076	0.9627470092773438	-0.0381239013671875	0.0400796012878418	0.9950650024414063	0.011767600059509277	0.07474800109863282	0.9652119750976562	-0.003232199907302856	0.07125240325927734	0.9755150146484375	-0.016038400650024414	0.06680889892578125	0.9857369995117188	-0.03087339973449707	0.057012001037597654	1.00427001953125	-0.05251169967651367	0.03361709976196289	1.067
44	1.4666666666666666	-0.003381639957427978	-0.05754550170898438	1.002489990234375	-0.012374500274658203	-0.03889550018310547	1.0188400268554687	-0.026180700302124025	-0.02455270004272461	1.0404599609375	-0.03210449981689453	0.006422410011291504	1.0543599853515624	-0.018447000503540038	-0.01573680019378662	0.9224019775390625	-0.03135650062561035	-0.013637800216674805	0.9400449829101563	-0.04075299835205078	-0.011009099960327149	0.9602830200195313	-0.03956420135498047	-0.004052159786224366	0.9962990112304687	-0.030385900497436523	0.02590530014038086	0.9018309936523438	-0.036530799865722656	0.023664899826049805	0.9257839965820313	-0.042593299865722654	0.021017999649047853	0.9529569702148437	-0.04287490081787109	0.01849049949645996	0.9914110107421875	0.000810159981250762	0.04550870132446289	0.9269390258789062	-0.014699099540710449	0.04540409851074219	0.94310498046875	-0.030264999389648436	0.04401789855957031	0.963072998046875	-0.03953900146484375	0.038468101501464846	0.99539599609375	0.010883099555969238	0.07338970184326171	0.966281005859375	-0.004327250003814697	0.069885498046875	0.9762440185546875	-0.01736389923095703	0.06540570068359375	0.986281005859375	-0.03247129821777344	0.055530101776123046	1.0045700073242188	-0.052444099426269535	0.03214450073242187	1.0673199462890626
45	1.5	-0.0022114698886871336	-0.057867698669433594	1.0023599853515626	-0.011566200256347657	-0.03960490036010742	1.019010009765625	-0.025322900772094727	-0.02556469917297363	1.0408399658203125	-0.03157760047912598	0.005258900165557861	1.0548199462890624	-0.0180403995513916	-0.01647570037841797	0.9230050048828125	-0.031098400115966797	-0.014727199554443359	0.940655029296875	-0.04061159896850586	-0.01237399959564209	0.9608070068359374	-0.03946329879760742	-0.0054890899658203126	0.9966959838867188	-0.030958999633789064	0.02465589904785156	0.9023909912109375	-0.03707270050048828	0.022333200454711915	0.9263319702148437	-0.043097599029541016	0.019557899475097656	0.95352001953125	-0.0431510009765625	0.017032400131225586	0.991969970703125	-0.000135001003742218	0.044594600677490236	0.9272650146484375	-0.01563659954071045	0.044276699066162106	0.9435460205078126	-0.03117840003967285	0.042706100463867185	0.9635989990234375	-0.0401693000793457	0.037116199493408206	0.9959810180664063	0.01030109977722168	0.07263990020751954	0.9670850219726562	-0.004894859790802002	0.06895330047607422	0.9770070190429687	-0.01790690040588379	0.06424990081787109	0.986968017578125	-0.03325320053100586	0.054214298248291014	1.0049000244140625	-0.052283100128173825	0.03081450080871582	1.0678900146484376
46	1.5333333333333334	-0.0005512819886207581	-0.05809980010986328	1.0026500244140626	-0.010566900253295899	-0.0401948013305664	1.0194500122070314	-0.024507400512695312	-0.026485399246215822	1.0413699951171875	-0.031123300552368165	0.004288849830627442	1.055280029296875	-0.01697610092163086	-0.01707659912109375	0.9237680053710937	-0.0303262996673584	-0.015725600242614747	0.9412340087890625	-0.040146198272705075	-0.013605899810791015	0.9613519897460937	-0.03949020004272461	-0.006813449859619141	0.9972739868164062	-0.02986039924621582	0.023831699371337892	0.903073974609375	-0.03642190170288086	0.021296499252319336	0.9268930053710938	-0.042924598693847654	0.018379100799560545	0.9540819702148438	-0.04348870086669922	0.015703700065612794	0.9925599975585937	0.000491620987653732	0.04401890182495117	0.9284099731445312	-0.015369700431823731	0.043446701049804685	0.9443489990234375	-0.031102500915527343	0.04168360137939453	0.9642160034179688	-0.04053329849243164	0.0358651008605957	0.9964630126953125	0.011010100364685058	0.07185919952392578	0.9692130126953125	-0.004444379806518555	0.06802490234375	0.9786480102539062	-0.017795799255371093	0.06321200180053711	0.9881719970703124	-0.03374399948120117	0.05303279876708984	1.0053099975585937	-0.052021800994873045	0.029744699478149415	1.0681199951171876
47	1.5666666666666667	0.000294135004281997	-0.0586156005859375	1.003030029296875	-0.010120699882507325	-0.041003299713134767	1.0199600219726563	-0.024237499237060547	-0.027430999755859376	1.04175	-0.03099090003967285	0.003340019941329956	1.0555999755859375	-0.014778800010681152	-0.017332300186157227	0.9245670166015625	-0.02860070037841797	-0.016274499893188476	0.9417009887695312	-0.03900220108032226	-0.014386199951171874	0.9615369873046875	-0.0392146987915039	-0.007842629909515382	0.9975599975585937	-0.026906000137329102	0.023346399307250975	0.9039099731445313	-0.03421820068359375	0.02067919921875	0.9275040283203125	-0.04163140106201172	0.017554100036621095	0.9544089965820313	-0.043272899627685546	0.014733699798583985	0.9929130249023438	0.001547829985618591	0.04312990188598633	0.9293319702148437	-0.014479499816894531	0.0425276985168457	0.9450659790039062	-0.030576400756835938	0.040704299926757816	0.9646810302734375	-0.04025019836425781	0.034955699920654296	0.9968569946289062	0.012516400337219239	0.07083100128173828	0.9713829956054687	-0.003142329931259155	0.06698400115966797	0.9803179931640625	-0.01678219985961914	0.062284801483154295	0.9894180297851562	-0.03355830001831055	0.05214939880371094	1.0058599853515624	-0.051977100372314455	0.028856800079345702	1.0684599609375
48	1.6	0.00087083899974823	-0.05886050033569336	1.0028400268554687	-0.009604470252990722	-0.041420398712158205	1.019780029296875	-0.023943700790405274	-0.028071599960327147	1.0418299560546875	-0.03072249984741211	0.002561340093612671	1.05572998046875	-0.01331149959564209	-0.017342800140380858	0.9250430297851563	-0.027453699111938477	-0.01644459915161133	0.9419810180664062	-0.03821200180053711	-0.01475160026550293	0.9617490234375	-0.038942100524902344	-0.00850216007232666	0.9978250122070312	-0.024844200134277343	0.023219200134277345	0.9045130004882812	-0.03267589950561523	0.020422000885009766	0.92781298828125	-0.0406417007446289	0.017140600204467775	0.9546799926757813	-0.04291630172729492	0.014118200302124023	0.9930640258789063	0.002966660022735595	0.04250389862060547	0.93018798828125	-0.01323519992828369	0.042000198364257814	0.9457169799804688	-0.02958289909362793	0.04013140106201172	0.965051025390625	-0.03975809860229492	0.034265399932861325	0.9970250244140625	0.014021900177001953	0.06990280151367187	0.9727680053710938	-0.0016910599470138549	0.06608830261230468	0.9814400024414063	-0.015593400001525879	0.06141120147705078	0.9902529907226563	-0.0328927001953125	0.051346500396728514	1.006219970703125	-0.051729598999023435	0.028093700408935548	1.06856005859375
